<svg width="806" height="805" viewBox="0 0 806 805" fill="none" xmlns="http://www.w3.org/2000/svg">
    <path fill-rule="evenodd" clip-rule="evenodd" d="M402.938 26.7713C610.071 26.7713 778.967 195.589 778.967 402.632C778.967 609.675 610.071 778.493 402.938 778.493C195.8 778.493 26.9075 609.675 26.9075 402.632C26.9075 195.589 195.8 26.7713 402.938 26.7713ZM402.938 130.05C553.125 130.05 675.64 252.51 675.64 402.632C675.64 552.754 553.125 675.215 402.938 675.215C252.748 675.215 130.232 552.754 130.232 402.632C130.232 252.51 252.748 130.05 402.938 130.05ZM402.938 0.5C624.537 0.5 805.319 181.133 805.319 402.702C805.319 624.201 624.607 804.903 402.938 804.903C181.338 804.903 0.554688 624.271 0.554688 402.702C0.554688 181.202 181.269 0.5 402.938 0.5ZM402.938 17.9447C614.943 17.9447 787.801 190.793 787.801 402.632C787.801 614.54 614.873 787.32 402.938 787.32C190.933 787.32 18.0765 614.471 18.0765 402.632C18.0765 190.724 191.003 17.9447 402.938 17.9447Z" fill="#0162A9"/>
    <path fill-rule="evenodd" clip-rule="evenodd" d="M166.734 241.875C166.178 242.083 165.691 242.222 165.273 242.361C161.102 239.581 160.476 239.373 160.476 234.16C158.738 231.241 156.443 229.225 154.983 226.515C152.411 223.735 148.934 219.565 146.292 217.48C145.944 217.897 145.666 218.314 145.318 218.731C147.613 222.275 149.42 226.862 151.576 231.032C152.133 236.523 146.431 234.09 145.458 231.38C144.206 229.712 143.302 227.488 142.259 225.75C141.494 225.75 141.494 225.75 140.937 226.028C141.425 230.685 142.467 232.144 145.666 235.55C146.431 236.801 147.265 238.122 148.03 239.442C147.265 242.014 145.458 243.265 143.58 242.709C141.147 240.415 138.713 238.261 136.348 236.037C134.123 233.117 131.481 227.766 129.186 225.75C128.839 225.889 128.561 225.959 128.353 226.098C127.518 229.156 128.353 234.16 130.369 236.801C134.889 240.971 141.981 248.338 143.302 255.219C144.623 257.512 144.623 257.512 145.248 258.972C148.795 262.447 148.795 266.617 143.511 267.173C140.242 265.991 138.783 264.393 136.558 262.447C132.386 260.153 129.812 256.47 126.266 253.551C124.18 251.049 121.469 247.365 120.982 244.516C122.581 244.377 125.71 245.767 128.144 246.323C128.491 246.67 131.62 249.798 132.455 248.686C132.108 246.184 127.17 239.373 125.432 237.635C124.528 235.411 123.833 234.299 122.511 230.893C121.399 226.723 120.912 221.65 121.121 217.271C119.591 212.406 114.098 207.611 111.525 203.51C107.771 199.827 107.214 200.8 110.135 196.908C112.847 196.213 117.088 198.715 120.564 199.271C121.677 198.298 124.041 196.838 126.127 197.047C127.936 198.367 127.936 198.367 128.491 198.367C129.186 197.464 129.395 197.047 129.326 195.587C131.203 189.818 127.031 180.366 134.193 177.656C137.809 178.351 139.964 180.783 141.842 184.467C146.987 190.096 146.987 190.096 147.961 191.625C156.791 198.228 165.9 204.205 174.453 211.85C177.025 215.047 176.886 217.48 174.8 220.607C173.062 221.441 170.559 219.843 169.654 219.426C166.664 220.051 163.397 221.024 160.893 221.302C160.476 221.719 160.128 222.136 159.711 222.553C162.909 227.905 169.794 234.994 166.595 242.014L166.734 241.875ZM165.413 214.213C162.075 216.09 160.545 218.453 156.652 218.314C155.122 217.341 152.55 216.159 153.801 214.491C157.278 214.769 158.181 213.449 161.241 210.46C162.006 210.391 165.204 212.476 165.413 214.213ZM154.358 206.638C151.089 206.777 150.394 206.151 148.864 203.858C143.997 199.549 141.216 199.062 136.209 201.286C135.584 201.217 134.958 201.147 134.402 201.078C133.984 200.105 135.514 198.437 136.209 197.186C136.001 195.726 134.958 189.61 137.531 189.332C142.745 194.197 147.473 198.854 153.453 203.51C155.678 204.414 155.261 204.692 154.288 206.638H154.358ZM135.306 226.654C135.028 226.515 134.75 226.306 134.541 226.098C134.541 225.889 134.472 225.75 134.541 225.472C130.717 219.982 128.561 214.908 129.882 208.375C129.673 207.124 129.534 205.873 129.326 204.622C129.604 204.344 129.882 204.136 130.161 203.788C131.134 204.205 132.108 204.553 133.081 204.97C135.236 206.916 143.858 214.63 140.034 217.827C137.739 217.063 137.739 217.132 136.348 217.827C135.723 220.677 135.445 222.275 136.001 225.194C135.723 225.611 135.514 226.098 135.306 226.584V226.654ZM145.248 209.348C143.789 208.792 142.884 207.819 142.467 206.985C142.537 206.916 142.606 206.777 142.676 206.707C143.441 206.916 145.04 207.819 145.179 209.348H145.248ZM112.152 232.77C109.092 231.936 106.241 226.932 104.364 224.916C100.261 221.719 93.5862 221.65 92.2656 216.159C94.8378 210.669 97.48 211.294 103.252 213.866C106.867 217.48 109.578 222.206 110.691 227.696C110.9 228.322 112.499 231.588 112.152 232.77Z" fill="#DCDDDD"/>
    <path fill-rule="evenodd" clip-rule="evenodd" d="M320.056 314.015L315.745 315.891L314.842 319.644L319.083 318.115L320.056 314.015ZM312.964 327.776L312.2 331.181L316.511 329.583L317.345 325.969L313.034 327.776H312.964ZM310.183 339.799L309.418 342.996L313.659 341.398L314.494 337.853L310.114 339.73L310.183 339.799ZM307.402 351.684L306.567 355.298L310.878 353.769L311.783 349.738L307.402 351.614V351.684ZM342.864 342.162L348.078 340.216L347.035 344.734L341.542 347.375L342.864 342.093V342.162ZM345.784 329.722L350.859 327.984L349.886 332.224L344.532 334.865L345.784 329.722ZM348.426 318.046L353.362 316.308L352.32 321.034L347.104 323.536L348.426 318.046ZM356.074 304.771L355.031 309.358L350.025 311.721L351.276 306.508L356.074 304.771ZM358.647 293.234L357.604 297.89L352.737 300.184L353.918 295.11L358.647 293.234ZM351.276 295.805L350.025 301.087L342.376 304.562L343.767 298.655L351.276 295.875V295.805ZM347.035 312.903L339.734 316.1L341.125 310.192L348.287 307.62L346.965 312.972L347.035 312.903ZM338.204 321.729L345.575 319.019L344.323 324.44L336.884 327.706L338.274 321.729H338.204ZM335.284 333.683L342.654 330.973L341.473 335.907L333.964 339.382L335.215 333.683H335.284ZM305.733 483.041C307.402 483.18 309.07 483.319 310.809 483.388C216.732 497.705 124.532 443.078 228.135 358.148C262.206 330.208 300.24 314.64 340.917 299.628L339.456 305.813L338.9 306.022L323.116 312.764L322.004 317.212L338.065 311.234L336.467 317.768L320.265 324.648L319.361 328.401L335.215 322.841L333.685 329.027L317.484 336.463L316.58 340.216L332.225 334.726L330.834 340.703L314.703 348.278L313.729 352.449L329.374 346.749L327.845 353.074C305.177 363.36 283.135 372.743 262.902 387.616C212.63 424.521 198.166 471.295 305.594 482.902L305.733 483.041ZM332.364 345.846L339.734 343.135L338.483 348.417L330.973 351.823L332.364 345.776V345.846Z" fill="#00A2E9"/>
    <path fill-rule="evenodd" clip-rule="evenodd" d="M483.458 464.907L487.769 463.03L488.672 459.277L484.431 460.806L483.458 464.907ZM490.55 451.146L491.314 447.74L487.003 449.339L486.169 452.953L490.48 451.146H490.55ZM493.331 439.122L494.095 435.925L489.854 437.524L489.02 441.068L493.4 439.192L493.331 439.122ZM496.112 427.237L496.947 423.623L492.636 425.152L491.731 429.184L496.112 427.307V427.237ZM460.65 436.759L455.436 438.705L456.478 434.188L461.972 431.547L460.65 436.829V436.759ZM457.73 449.2L452.655 450.937L453.628 446.698L458.982 444.057L457.73 449.2ZM455.088 460.876L450.152 462.613L451.194 457.887L456.409 455.385L455.088 460.876ZM447.439 474.151L448.483 469.564L453.489 467.2L452.238 472.413L447.439 474.151ZM444.867 485.688L445.91 481.031L450.777 478.738L449.595 483.811L444.867 485.688ZM452.238 483.116L453.489 477.834L461.138 474.359L459.747 480.267L452.238 483.047V483.116ZM456.478 466.019L463.78 462.822L462.389 468.73L455.227 471.301L456.548 465.949L456.478 466.019ZM465.309 457.192L457.939 459.903L459.191 454.482L466.63 451.215L465.239 457.192H465.309ZM468.23 445.238L460.859 447.949L462.041 443.014L469.55 439.539L468.299 445.238H468.23ZM497.781 295.881C496.112 295.742 494.444 295.603 492.705 295.533C586.782 281.216 678.983 335.844 575.377 420.774C541.308 448.713 503.274 464.281 462.597 479.294L464.058 473.108L464.614 472.9L480.397 466.158L481.511 461.71L465.448 467.618L467.047 461.084L483.248 454.204L484.153 450.451L468.299 456.011L469.828 449.825L486.03 442.389L486.934 438.636L471.289 444.126L472.68 438.149L488.811 430.574L489.784 426.403L474.139 432.103L475.669 425.778C498.337 415.492 520.379 406.109 540.612 391.236C590.884 354.331 605.35 307.557 497.92 295.95L497.781 295.881ZM471.15 433.076L463.78 435.786L465.031 430.504L472.541 427.098L471.15 433.145V433.076Z" fill="#0162A9"/>
    <path fill-rule="evenodd" clip-rule="evenodd" d="M267.491 256.819L264.57 270.024L372.276 282.396L349.608 387.759C382.705 380.809 417.332 372.121 450.43 365.171C456.2 362.947 460.442 358.986 462.597 354.051L478.242 284.203C480.885 279.616 485.126 276.905 491.036 276.071L615.985 276.419L616.336 274.751L582.05 256.75H267.421L267.491 256.819Z" fill="#00A2E9"/>
    <path fill-rule="evenodd" clip-rule="evenodd" d="M327.357 490.761L342.793 420.009C347.104 407.152 352.666 402.356 366.086 399.229C396.75 392.14 427.344 385.05 458.008 377.961L432.489 496.391L539.499 508.762L536.649 521.967H187.528L187.18 520.438L219.443 503.41L308.791 503.758C317.483 503.827 324.436 498.962 327.288 490.692L327.357 490.761Z" fill="#0162A9"/>
    <path fill-rule="evenodd" clip-rule="evenodd" d="M463.773 606.409H439.576V605.714C447.015 596.887 451.465 590.98 453.065 587.922C454.664 584.864 455.429 581.875 455.429 578.956C455.429 576.801 454.734 575.064 453.482 573.674C452.16 572.284 450.562 571.589 448.684 571.589C445.555 571.589 443.191 573.118 441.453 576.245L440.34 575.828C441.453 571.936 443.052 569.087 445.277 567.21C447.502 565.334 450.075 564.43 452.995 564.43C455.081 564.43 456.959 564.917 458.696 565.89C460.435 566.863 461.756 568.183 462.729 569.851C463.703 571.519 464.19 573.118 464.19 574.577C464.19 577.288 463.425 579.998 461.965 582.779C459.948 586.532 455.498 591.744 448.615 598.416H457.515C459.67 598.416 461.13 598.347 461.756 598.138C462.382 597.93 462.938 597.652 463.355 597.235C463.773 596.818 464.329 595.845 465.024 594.524H466.137L463.842 606.409H463.773ZM413.362 565.334H432.622L429.562 573.118H413.362L411.832 577.218C418.785 577.496 424.139 579.234 427.894 582.431C430.953 585.072 432.553 588.339 432.553 592.3C432.553 594.802 431.857 597.304 430.397 599.667C428.937 602.1 426.92 603.907 424.348 605.227C421.706 606.548 418.854 607.173 415.795 607.173C412.458 607.173 409.885 606.548 408.078 605.297C406.826 604.393 406.2 603.42 406.2 602.239C406.2 601.405 406.548 600.64 407.173 599.945C407.799 599.25 408.564 598.972 409.468 598.972C410.233 598.972 411.067 599.111 411.901 599.459C412.736 599.806 414.126 600.64 416.073 602.03C417.325 602.864 418.368 603.49 419.272 603.768C419.898 603.976 420.593 604.115 421.358 604.115C423.026 604.115 424.417 603.49 425.6 602.308C426.781 601.127 427.337 599.667 427.337 597.93C427.337 594.385 425.529 591.466 421.984 589.242C418.437 587.018 413.918 585.906 408.495 585.906C407.939 585.906 407.173 585.906 406.061 585.906L413.431 565.195L413.362 565.334ZM389.095 587.296C389.303 585.072 389.373 583.057 389.373 581.319C389.373 577.635 388.956 574.23 388.122 571.033C387.634 569.295 386.939 567.975 385.966 567.141C385.479 566.724 384.784 566.446 384.019 566.446C382.976 566.446 382.211 566.863 381.655 567.766C380.89 568.948 380.473 571.241 380.473 574.577C380.473 580.137 381.169 584.029 382.489 586.115C383.394 587.505 384.506 588.2 385.966 588.2C386.731 588.2 387.773 587.852 389.095 587.227V587.296ZM371.712 607.243V606.409C375.05 605.644 377.9 604.532 380.264 603.003C382.628 601.474 384.436 599.667 385.827 597.443C387.217 595.219 388.122 592.717 388.678 589.868C387.426 590.493 386.383 590.98 385.479 591.188C384.575 591.466 383.672 591.536 382.698 591.536C379.569 591.536 376.997 590.424 374.911 588.2C372.825 585.976 371.781 582.917 371.781 579.025C371.781 576.315 372.338 573.813 373.45 571.589C374.563 569.365 376.162 567.627 378.248 566.376C380.334 565.125 382.489 564.5 384.714 564.5C387.148 564.5 389.373 565.195 391.528 566.585C393.684 567.975 395.353 569.921 396.673 572.562C397.925 575.203 398.551 578.122 398.551 581.458C398.551 585.767 397.508 589.937 395.422 593.899C393.336 597.86 390.277 601.057 386.175 603.42C382.072 605.783 377.205 607.104 371.642 607.312L371.712 607.243ZM355.858 564.5V598.069C355.858 600.571 355.997 602.239 356.206 602.934C356.414 603.629 356.902 604.185 357.597 604.671C358.292 605.088 359.474 605.366 361.003 605.366H361.978V606.478H340.353V605.366H341.466C343.203 605.366 344.455 605.158 345.22 604.741C345.985 604.324 346.472 603.768 346.75 603.073C347.028 602.378 347.167 600.71 347.167 598.138V576.871C347.167 574.994 347.097 573.813 346.889 573.326C346.68 572.84 346.402 572.423 345.846 572.075C345.359 571.728 344.803 571.589 344.108 571.589C343.064 571.589 341.813 571.936 340.353 572.562L339.797 571.45L354.885 564.569H355.858V564.5Z" fill="#0162A9"/>
    <path d="M49.9219 414.167L90.3211 409.232L90.6682 411.943L91.0163 414.723L74.4669 416.738L77.0401 437.797L93.5885 435.781L93.9366 438.492L94.2838 441.202L53.8856 446.138L53.5385 443.426L53.1903 440.716L72.1729 438.353L69.5997 417.294L50.6182 419.658L50.27 416.947L49.9219 414.167ZM77.5263 483.945C72.6591 485.057 68.4872 484.572 65.0807 482.487C61.6732 480.402 59.4481 476.856 58.2666 471.991C57.0841 466.918 57.5013 462.748 59.5872 459.482C61.6041 456.215 65.2197 453.991 70.295 452.81L95.3963 447.04L96.0226 449.681L96.6479 452.392L71.9638 458.091C68.2791 458.925 65.706 460.454 64.1763 462.608C62.6466 464.832 62.2995 467.543 63.0638 470.879C63.8291 474.215 65.3588 476.578 67.7229 477.829C70.0169 479.15 73.0072 479.359 76.7619 478.525L101.446 472.826L102.071 475.466L102.698 478.177L77.5963 483.945H77.5263ZM66.6104 497.082L105.062 483.806L105.965 486.379L110.902 500.695C112.015 503.961 112.084 506.881 111.11 509.522C110.137 512.093 108.26 513.901 105.479 514.805C102.28 515.917 99.3601 515.568 96.7869 513.831C96.1616 513.414 95.6054 512.997 95.1182 512.441C95.1182 513.9 94.9101 515.151 94.5619 516.333C93.5885 519.46 91.5026 521.615 88.2351 522.727C84.6885 523.978 81.42 523.701 78.5697 521.963C75.7185 520.226 73.5635 517.168 72.0338 512.789L67.5138 499.652L66.6104 497.082ZM102.419 490.548L90.4601 494.648L93.6586 503.961C94.632 506.811 95.8835 508.688 97.3432 509.661C98.8039 510.634 100.681 510.703 102.837 509.939C104.784 509.244 105.965 508.201 106.452 506.672C106.938 505.143 106.73 503.127 105.826 500.556L102.419 490.617V490.548ZM86.2872 496.108L72.8682 500.695L76.4838 511.259C77.5263 514.248 78.8479 516.264 80.4466 517.237C82.0463 518.21 84.1323 518.279 86.6354 517.445C88.7903 516.68 90.1119 515.429 90.6682 513.622C91.1554 511.815 90.8773 509.383 89.8338 506.255L86.2872 496.038V496.108ZM80.5166 534.265L116.743 515.778L130.232 542.256L128.076 543.368L125.921 544.482L114.935 522.867L103.879 528.495L113.962 548.234L111.806 549.346L109.651 550.458L99.5682 530.719L87.3997 536.906L98.5257 558.799L96.3697 559.911L94.2148 561.023L80.5857 534.265H80.5166ZM99.0119 568.945L134.265 548.581L135.655 550.945L137.046 553.307L101.793 573.672L100.403 571.308L99.0119 568.945ZM153.038 617.456C149.144 620.584 145.182 621.974 141.218 621.557C137.255 621.14 133.64 618.986 130.51 615.094C127.243 611.063 125.782 607.102 126.199 603.279C126.616 599.457 128.841 595.843 132.874 592.576L152.899 576.381L154.638 578.536L156.376 580.69L136.699 596.607C133.779 598.97 132.11 601.471 131.693 604.112C131.275 606.753 132.179 609.395 134.335 612.036C136.49 614.677 138.924 616.137 141.566 616.276C144.208 616.415 146.99 615.303 149.979 612.94L169.657 597.023L171.395 599.179L173.133 601.333L153.108 617.526L153.038 617.456ZM151.857 637.891L149.91 636.083L147.963 634.276L175.706 604.529L178.14 606.753L180.574 609.047L172.925 647.065L195.453 622.878L197.4 624.685L199.347 626.492L171.604 656.239L169.379 654.154L167.154 652.068L174.455 613.495L151.787 637.752L151.857 637.891ZM180.225 662.98L206.369 631.844L208.456 633.581L210.542 635.388L184.397 666.524L182.311 664.787L180.225 662.98ZM213.601 637.752L216.105 639.489L218.608 641.227L208.178 676.393L237.659 654.57L240.162 656.307L242.666 658.045L207.205 682.857L204.77 681.19L202.336 679.521L213.531 637.752H213.601ZM225.908 694.88L245.655 659.297L271.661 673.683L270.478 675.838L269.297 677.992L248.089 666.247L242.039 677.089L261.439 687.792L260.257 689.946L259.075 692.101L239.675 681.398L233.07 693.352L254.556 705.237L253.373 707.391L252.192 709.545L225.908 694.951V694.88ZM260.883 713.021L275.484 675.073L278.057 676.047L293.146 681.815C297.179 683.344 299.89 685.428 301.351 687.93C302.811 690.502 302.811 693.421 301.559 696.826C300.308 700.162 298.222 702.317 295.301 703.36C294.537 703.638 293.842 703.778 293.076 703.917L293.772 704.68C295.579 706.904 295.928 709.545 294.815 712.742L292.381 719.763C291.964 720.944 291.825 721.778 291.895 722.404C291.964 723.029 292.312 723.654 292.868 724.279L292.52 725.114L286.193 722.682C286.193 722.334 286.332 721.43 286.679 720.109C287.027 718.719 287.514 717.26 288.07 715.592L289.113 712.534C289.948 710.171 290.017 708.226 289.322 706.836C288.626 705.446 287.028 704.264 284.593 703.291L272.425 698.633L266.167 715.036L263.595 714.063L261.022 713.091L260.883 713.021ZM274.025 694.185L286.749 699.05C289.113 699.954 291.06 700.093 292.59 699.467C294.12 698.842 295.301 697.383 296.136 695.159C296.97 693.005 297.04 691.128 296.206 689.669C295.44 688.209 293.772 686.958 291.268 686.055L278.961 681.328L274.025 694.185ZM331.18 705.584C331.598 703.082 331.18 700.857 329.79 699.05C328.399 697.243 326.313 695.924 323.393 695.159C320.403 694.325 317.968 694.324 316.092 695.089C314.214 695.853 313.032 697.313 312.406 699.537C311.989 701.066 312.198 702.317 313.032 703.36C313.867 704.402 315.743 705.654 318.664 707.253L325.062 710.727C328.468 712.603 330.763 714.549 331.876 716.704C332.988 718.789 333.127 721.43 332.293 724.557C331.319 728.102 329.233 730.604 325.965 731.924C322.698 733.314 318.734 733.314 314.145 732.133C308.999 730.743 305.314 728.45 303.089 725.323C300.934 722.195 300.378 718.58 301.49 714.48L301.559 714.203L306.426 715.523C305.731 718.373 306.218 720.874 307.748 722.959C309.278 725.044 311.85 726.574 315.396 727.477C318.664 728.381 321.306 728.45 323.253 727.755C325.27 727.06 326.521 725.67 327.148 723.516C327.634 721.639 327.495 720.041 326.591 718.859C325.757 717.678 323.74 716.217 320.611 714.549L314.214 711.075C310.946 709.338 308.79 707.531 307.748 705.654C306.635 703.778 306.496 701.553 307.192 698.982C308.165 695.229 310.251 692.587 313.449 691.058C316.578 689.529 320.333 689.391 324.713 690.503C329.163 691.684 332.362 693.699 334.379 696.618C336.395 699.537 336.951 702.943 336.117 706.904L331.249 705.584H331.18ZM338.62 736.511L345.712 696.479L348.424 696.966L351.135 697.453L344.043 737.484L341.332 736.998L338.62 736.511ZM365.043 740.82L369.423 705.307L355.794 703.638L356.073 701.206L356.351 698.773L389.1 702.805L388.822 705.237L388.544 707.669L374.916 706.002L370.535 741.516L367.824 741.169L365.112 740.82H365.043ZM402.66 726.781L388.127 701.831L391.325 701.971L394.593 702.109L405.58 722.265L417.956 702.943L421.155 703.083L424.353 703.221L408.152 727.13L407.596 743.323L404.885 743.253L402.103 743.185L402.66 726.92V726.781ZM460.023 739.362C454.252 740.474 449.176 739.501 444.796 736.304C440.485 733.107 437.703 728.38 436.452 722.125C435.2 715.8 436.035 710.379 438.885 705.792C441.736 701.205 446.047 698.355 451.819 697.243C457.659 696.131 462.735 697.104 467.046 700.302C471.356 703.499 474.138 708.225 475.389 714.549C476.641 720.804 475.806 726.295 472.956 730.812C470.105 735.399 465.794 738.18 459.953 739.362H460.023ZM459.119 734.565C463.291 733.731 466.35 731.646 468.297 728.102C470.244 724.627 470.8 720.457 469.827 715.592C468.853 710.727 466.837 707.044 463.708 704.542C460.58 702.04 456.894 701.206 452.792 701.971C448.62 702.805 445.561 704.958 443.614 708.433C441.667 711.908 441.11 716.078 442.084 720.943C443.058 725.808 445.074 729.493 448.203 731.995C451.331 734.497 454.947 735.331 459.119 734.497V734.565ZM487.141 733.107L475.25 694.185L502.159 685.984L502.855 688.347L503.55 690.711L481.856 697.313L485.472 709.198L504.454 703.43L505.15 705.792L505.845 708.156L486.862 713.924L492.286 731.646L489.644 732.48L487.001 733.315L487.141 733.107ZM542.488 714.758L527.331 682.302L514.884 688.14L513.841 685.916L512.798 683.691L542.697 669.721L543.74 671.945L544.782 674.169L532.337 680.008L547.493 712.464L544.992 713.646L542.488 714.828V714.758ZM566.551 703.638L545.622 668.748L571.133 653.458L572.384 655.544L573.634 657.628L552.845 670.138L559.248 680.773L578.227 669.375L579.477 671.459L580.728 673.544L561.749 684.943L568.772 696.618L589.842 683.969L591.092 686.055L592.343 688.14L566.551 703.638ZM618.204 651.721C620.646 656.169 621.476 660.477 620.716 664.578C619.945 668.748 617.584 672.294 613.762 675.143C609.31 678.549 604.508 679.661 599.576 678.549C594.564 677.437 590.122 674.308 586.15 669.096C582.188 663.883 580.457 658.67 580.868 653.458C581.288 648.245 583.859 643.937 588.521 640.393C592.203 637.613 595.884 636.291 599.716 636.43C603.468 636.569 606.879 638.099 609.861 641.018L605.619 644.214C603.608 642.407 601.317 641.435 598.876 641.505C596.445 641.505 593.944 642.478 591.442 644.354C588.171 646.787 586.5 649.983 586.36 653.805C586.22 657.628 587.681 661.59 590.742 665.622C594.014 669.931 597.345 672.502 600.827 673.406C604.298 674.309 607.78 673.475 611.181 670.904C613.692 669.027 615.223 666.664 615.703 663.815C616.194 661.034 615.633 657.975 614.033 654.709L618.274 651.513L618.204 651.721ZM633.301 659.018L605.559 629.273L607.57 627.396L609.591 625.519L620.986 637.682L636.493 623.226L625.088 611.062L627.109 609.187L629.129 607.31L656.872 637.057L654.851 638.932L652.84 640.81L639.764 626.839L624.257 641.295L637.333 655.266L635.312 657.141L633.301 659.018ZM667.647 625.589L665.976 627.674L664.305 629.758L632.671 604.182L634.762 601.61L636.843 599.039L675.36 604.044L649.639 583.263L651.309 581.177L652.97 579.092L684.614 604.669L682.733 607.031L680.853 609.394L641.845 604.807L667.647 625.659V625.589ZM701.162 582.568C697.89 587.433 693.578 590.351 688.226 591.185C682.944 592.019 677.591 590.63 672.309 587.086C667.016 583.472 663.685 579.093 662.504 573.88C661.254 568.668 662.294 563.593 665.626 558.659C668.967 553.724 673.279 550.876 678.562 550.042C683.844 549.208 689.196 550.597 694.489 554.211C699.771 557.755 703.043 562.204 704.293 567.417C705.544 572.629 704.493 577.702 701.162 582.636V582.568ZM697.13 579.857C699.491 576.313 700.121 572.629 699.071 568.807C698.03 564.984 695.389 561.647 691.287 558.867C687.185 556.087 683.154 554.907 679.122 555.393C675.16 555.81 671.959 557.825 669.598 561.3C667.227 564.775 666.606 568.459 667.647 572.351C668.687 576.243 671.328 579.509 675.43 582.289C679.532 585.069 683.574 586.182 687.536 585.765C691.497 585.279 694.699 583.332 697.06 579.857H697.13ZM715.278 558.938L678.422 541.771L679.602 539.268L680.793 536.766L713.257 551.917L721.951 533.221L724.172 534.265L726.403 535.307L715.348 559.006L715.278 558.938ZM736.688 513.066C734.677 518.626 731.195 522.449 726.263 524.534C721.321 526.619 715.828 526.55 709.786 524.396C703.733 522.172 699.491 518.697 697.06 513.901C694.629 509.106 694.349 503.961 696.36 498.401C698.381 492.841 701.852 489.02 706.864 486.935C711.797 484.85 717.289 484.918 723.342 487.142C729.394 489.366 733.636 492.842 736.067 497.568C738.499 502.364 738.709 507.506 736.688 513.066ZM732.106 511.398C733.566 507.437 733.286 503.683 731.335 500.208C729.394 496.733 726.053 494.162 721.391 492.424C716.739 490.756 712.497 490.618 708.735 492.008C704.983 493.398 702.412 496.108 700.952 500.069C699.491 504.031 699.771 507.784 701.782 511.259C703.733 514.734 707.074 517.307 711.727 519.044C716.389 520.712 720.56 520.851 724.312 519.461C728.074 518.071 730.645 515.36 732.106 511.398ZM749.624 469.977C748.443 475.467 745.592 479.567 741 482.138C736.418 484.71 730.985 485.336 724.732 484.016C718.47 482.695 713.747 479.845 710.616 475.536C707.485 471.227 706.514 466.293 707.695 460.663C708.605 456.354 710.616 452.809 713.747 450.237C716.879 447.596 720.35 446.485 724.312 446.694L723.202 451.905C720.49 451.836 718.129 452.671 716.319 454.478C714.438 456.215 713.187 458.716 712.497 462.052C711.657 465.944 712.497 469.351 714.998 472.409C717.499 475.467 721.191 477.483 726.053 478.525C731.265 479.637 735.507 479.289 738.849 477.621C742.18 475.883 744.271 472.964 745.172 468.725C746.082 464.624 745.242 461.011 742.81 457.883C742.39 457.397 741.98 456.909 741.56 456.492C740.93 455.936 740.029 455.311 738.849 454.755C737.668 454.199 736.488 453.782 735.367 453.573L734.887 453.435L732.246 465.875L727.724 464.902L731.405 447.457L752.475 451.905L751.785 455.241L746.492 455.451L746.772 455.797C749.904 459.898 750.944 464.554 749.834 469.906L749.624 469.977ZM739.199 428.345L713.327 441.064L713.677 437.866L714.028 434.669L734.887 425.147L716.459 411.457L716.809 408.259L717.149 405.062L739.889 422.854L756.026 424.522L755.746 427.232L755.466 430.013L739.269 428.345H739.199Z" fill="#DCDDDD"/>
    <path fill-rule="evenodd" clip-rule="evenodd" d="M227.509 178.147C222.293 180.232 219.86 181.205 219.373 175.298C222.571 168.556 224.31 158.34 224.936 150.555C221.042 142.98 216.592 137.559 211.656 131.373C210.334 128.732 204.423 113.928 201.225 114.345C198.305 110.94 197.54 109.48 201.295 106.283C209.917 103.712 215.34 115.318 216.384 122.686C220.346 132.972 227.161 141.868 234.323 150.972C235.435 152.988 236.478 159.938 232.376 158.201C232.028 157.436 232.028 157.436 230.498 155.698C230.081 155.698 230.081 155.698 228.829 156.672C229.177 162.51 230.081 171.058 228.76 176.549C228.343 177.105 227.926 177.661 227.509 178.147ZM243.71 146.872C238.146 148.123 237.382 140.964 238.146 137.42C237.521 132.902 236.687 128.176 231.681 130.4C230.637 129.914 230.776 129.566 230.359 129.01C231.263 126.717 232.306 124.354 233.279 122.06C232.584 119.28 232.376 116.569 231.542 113.72C231.054 111.079 230.568 108.438 230.151 105.797C227.37 101.279 224.518 96.4833 231.82 95.7883C236.2 98.4294 240.859 100.723 239.537 107.743C239.676 107.882 239.815 108.09 240.024 108.299C241.623 108.229 242.179 107.187 244.405 108.16C244.682 109.411 245.101 110.592 245.448 111.843C244.057 116.569 244.057 116.569 244.057 117.404C242.04 122.06 242.666 123.242 244.613 127.829C244.961 130.192 244.474 132.068 246.351 134.223C248.229 133.736 249.202 131.095 250.941 129.566C254.001 128.176 254.001 128.176 255.043 128.037C259.007 131.651 254.209 134.431 251.497 136.794C249.69 140.2 246.073 144.439 243.57 146.802L243.71 146.872ZM218.331 166.61C215.549 163.9 217.287 156.88 214.784 155.838C208.179 155.838 207.484 151.111 212.073 147.289C216.453 145.065 219.512 146.177 222.015 150.903C221.32 155.42 219.999 160.772 219.582 165.359C219.095 165.776 218.678 166.263 218.261 166.68L218.331 166.61ZM317.691 116.152C314.146 116.708 307.749 116.708 305.663 115.11C304.202 108.229 307.053 109.341 312.894 107.395C315.188 106.839 317.483 106.283 319.847 105.727C322.419 103.851 326.661 101.418 328.33 98.2905C328.469 98.221 328.608 98.082 328.817 98.0125C328.469 96.3444 331.111 93.7034 332.224 92.2439C334.171 86.4753 337.647 81.0541 340.846 75.9806C340.777 75.4941 340.707 75.0772 340.707 74.6602C339.942 74.7297 339.247 74.7992 338.482 75.0077C334.658 76.8147 324.297 81.5407 320.891 78.3437C316.093 70.0731 327.496 69.2391 333.128 68.0576C337.995 65.903 343.21 63.679 349.189 62.428C353.5 62.706 355.308 67.9881 355.378 72.1581C353.014 74.8687 349.677 77.5096 347.591 80.2201C346.339 82.5833 340.011 93.2168 341.75 95.7883C343.002 95.3713 344.183 95.0238 345.435 94.6763C350.233 91.4098 356.213 88.4212 357.95 97.0393C357.325 99.4024 353.709 100.167 351.971 100.932C344.322 102.947 338.482 105.241 332.155 109.411C327.149 111.843 322.558 114.554 317.761 116.222L317.691 116.152ZM442.571 121.226C439.373 118.307 440.555 118.099 441.529 114.554C445.284 113.442 445.284 113.442 450.012 112.538C452.793 111.357 455.574 110.245 458.425 109.133C460.024 108.09 462.388 108.16 462.457 105.797C460.441 105.38 459.746 105.449 454.184 104.198C453.557 103.225 452.932 102.252 452.376 101.349C453.906 96.6919 457.938 97.5955 462.527 96.9699C461.901 94.4679 460.859 95.1629 459.398 94.7459C456.756 92.9389 458.146 91.2708 458.495 89.4637C459.815 88.1432 463.709 89.8112 464.265 87.2397C460.859 85.4327 462.179 81.0542 463.153 78.6912C460.51 77.1622 458.425 78.0657 456.06 79.3862C455.018 79.3862 454.045 79.3862 453.071 79.4557C446.952 82.9308 436.383 79.3862 440.277 72.1581C443.684 70.4206 447.23 71.7411 451.332 72.4361C456.06 71.8801 461.276 70.768 466.282 70.351C468.09 69.3085 469.62 64.5825 467.812 64.8605C467.116 65.5555 466.629 66.5981 466.004 67.2236C461.137 67.1541 460.302 66.9456 457.729 63.679C459.051 55.9644 459.12 56.0339 466.629 57.7019C472.123 56.1034 472.262 50.1958 473.443 45.7478C474.626 44.2883 475.599 44.3578 477.615 44.5663C480.536 48.1803 480.954 48.5973 480.119 53.8794C479.493 55.1304 478.659 56.3119 479.146 58.3274C480.676 57.1459 487.698 51.0993 489.297 53.6709C489.158 54.5049 489.088 55.3389 488.949 56.1729C488.463 56.3814 487.976 56.5204 487.629 56.7289C487.42 57.7714 485.89 61.3855 486.377 62.706C487.002 61.733 487.002 61.733 488.324 58.0494C488.532 57.9799 488.88 57.9799 489.158 57.9104C490.896 53.1149 491.662 48.9448 493.399 44.6358C498.058 40.8132 500.84 47.4158 500.631 52.0724C500.352 52.5589 500.074 53.1844 499.796 53.7404C497.919 55.6864 491.174 64.93 493.121 68.0576C495.485 68.1966 498.823 67.8491 501.326 69.4476C503.343 74.3821 505.08 80.9847 497.015 79.2472C495.068 77.5792 490.132 72.3666 488.046 73.1311C487.837 73.6871 487.698 74.3127 487.559 74.8687C489.854 76.9537 491.035 81.0541 487.837 83.9732C486.724 84.3207 485.682 84.7378 484.569 85.1548C484.43 85.7803 484.291 86.4753 484.221 87.1703C485.751 91.7574 481.162 91.4099 479.146 93.8424C482.344 96.7613 485.195 93.1474 483.248 100.028C479.701 101.557 474.487 101.071 471.984 103.434C470.384 109.341 468.924 115.318 467.395 121.226C465.309 123.867 461.067 123.659 459.815 120.879C459.815 118.168 457.938 116.222 456.617 115.596C452.793 116.569 449.595 120.323 445.979 121.713C444.796 121.574 443.615 121.504 442.502 121.365L442.571 121.226ZM482.135 123.798C478.52 121.087 474.765 113.998 472.887 110.314C475.738 107.812 480.954 110.801 484.152 112.677C484.777 113.65 485.473 114.693 486.099 115.666C487.072 118.377 486.238 123.867 482.135 123.728V123.798ZM471.079 86.4058C471.01 86.1973 470.871 85.9888 470.871 85.8498C471.079 85.5718 471.357 85.3633 471.566 85.1548C471.845 85.2243 472.123 85.2938 472.401 85.4328C472.262 85.7108 472.123 85.9193 471.984 86.1973C471.706 86.2668 471.357 86.3363 471.079 86.4058ZM472.748 85.3633C473.235 83.0003 476.085 81.5406 478.171 81.1931C478.241 80.9846 478.31 80.7762 478.451 80.7067C478.729 80.7067 479.006 80.7762 479.284 80.8457C478.868 82.7223 474.556 85.3633 472.748 85.3633ZM473.026 77.5097C470.315 73.2701 479.146 73.7566 481.023 74.1041C480.954 74.3821 480.884 74.6602 480.815 75.0077C478.102 75.9112 475.46 77.3707 472.957 77.5792L473.026 77.5097ZM476.573 67.9881C476.295 67.7101 475.946 67.4321 475.668 67.2236C476.434 67.3626 477.198 67.5711 478.032 67.7101C477.546 67.7101 477.06 67.8491 476.573 67.9881ZM480.049 68.4746C479.771 68.2661 479.632 68.1271 479.424 67.9881C479.841 68.0576 480.327 68.1966 480.815 68.2661C480.536 68.2661 480.258 68.3356 480.049 68.4746ZM551.385 141.798C549.855 139.922 550.205 137.211 552.636 138.254C552.776 138.115 552.846 138.045 552.916 137.976C555.767 139.088 559.459 139.783 562.72 140.478C565.922 139.713 573.365 139.713 575.166 137.003C574.336 135.474 570.094 135.613 568.913 135.474C564.811 136.099 562.65 132.138 562.65 128.941C565.432 126.856 567.663 129.149 570.854 128.941C574.055 130.748 581.569 133.389 585.601 132.346C591.784 128.385 600.267 121.574 602.218 114.415C603.889 112.33 604.859 111.009 607.221 110.731C610.142 113.164 609.171 113.859 610.352 117.195C610.212 118.446 607.01 122.13 605.9 123.311C601.728 126.369 597.976 130.053 593.945 133.736C594.295 135.335 594.705 134.987 596.796 135.057C599.367 135.752 600.898 136.725 602.428 134.084C602.638 134.014 602.909 133.945 603.189 133.875C605.14 135.404 607.921 136.377 609.862 138.115C609.662 138.74 607.711 141.729 606.32 141.798C602.428 140.964 597.696 140.686 593.804 140.478C590.533 139.852 590.533 139.852 588.382 139.783C588.032 140.408 588.032 140.408 588.032 141.312C589.703 144.995 586.641 150.416 587.542 155.42C587.542 159.66 588.522 162.301 591.233 166.193C593.034 168.139 594.915 169.877 595.955 172.865C595.615 173.282 595.335 173.769 594.985 174.186C589.002 172.031 582.469 168 579.198 162.788C579.068 159.869 579.068 158.826 580.108 157.089C580.939 152.501 582.329 148.679 583.37 144.926C583.3 143.536 583.3 143.536 583.65 141.659C581.779 139.991 580.939 142.146 578.788 142.424C574.616 144.439 570.514 145.551 565.782 146.594C560.079 149.374 556.608 145.899 552.706 142.493C552.366 142.215 551.946 142.007 551.525 141.798H551.385ZM639.695 243.27C639.135 241.254 638.374 235.972 638.655 234.86C639.135 234.373 639.555 233.957 640.045 233.609C640.525 233.678 641.016 233.748 641.576 233.817C643.587 237.849 645.468 244.243 649.71 247.37C652.421 250.915 655.132 248.482 657.843 246.467C659.794 244.521 661.665 242.644 663.546 240.768C662.505 236.598 651.1 232.427 647.278 230.273C646.018 228.674 644.767 227.145 643.447 225.547C643.177 223.879 643.037 223.253 642.406 222.211C642.756 220.751 645.258 219.917 646.158 220.126C647.969 221.307 649.499 222.906 651.31 224.087C655.342 225.686 658.123 227.145 661.595 230.134C664.096 231.663 666.747 234.095 669.108 236.181C670.429 236.042 673.97 240.976 675.091 242.575C676.822 243.895 677.592 245.98 680.233 247.162C680.724 247.787 680.724 247.787 681.134 248.899C678.423 251.818 675.021 251.61 671.89 248.899C670.079 242.436 665.357 247.37 661.735 249.594C661.255 250.359 660.765 251.193 660.274 252.027C657.843 253.556 652.211 258.49 648.799 257.17C645.818 252.444 642.756 247.787 639.765 243.131L639.695 243.27ZM648.179 211.855C646.858 203.863 659.304 211.438 660.765 212.203C665.147 213.176 669.458 216.581 674.111 218.527C678.843 221.307 684.825 223.045 689.968 225.686C694.49 227.006 697.061 223.74 692.609 222.35C691.218 220.96 688.717 219.431 687.877 218.11C689.688 214.079 694.28 219.083 695.53 215.678C694 213.732 693.93 214.079 691.779 214.913C689.337 214.357 687.327 216.79 684.965 215.886C683.225 211.508 682.384 212.967 677.732 212.62C673 213.315 668.688 214.01 670.009 208.172C674.531 204.141 680.854 201.291 683.505 196.357C685.166 195.592 685.166 195.592 685.516 195.662C686.356 196.635 687.807 198.928 688.017 199.623C687.046 202.195 684.755 204.766 682.454 207.268C683.365 208.658 686.006 209.562 687.677 209.006C689.067 207.963 689.688 207.199 690.248 206.156C694.35 202.125 698.662 197.33 700.052 192.603C701.303 191.074 701.923 191.074 703.384 190.935C705.055 193.646 705.265 195.384 705.195 199.067C705.755 200.666 705.194 201.43 704.914 203.863C707.766 208.38 708.326 209.701 714.029 210.465C718.891 210.187 725.634 209.77 724.453 216.651C722.712 219.083 720.701 219.431 718.47 218.041C715.069 218.875 725.013 223.392 725.774 223.879C727.585 225.825 729.595 228.605 731.056 231.385C731.756 234.165 728.905 237.293 725.844 238.613C722.922 237.71 719.731 238.196 716.53 238.474C712.428 238.405 712.428 238.405 710.547 238.057C708.946 238.613 706.865 238.613 704.844 239.1C698.732 238.613 697.481 236.459 694.35 231.732C691.708 230.134 688.787 229.786 686.286 228.049C686.286 228.118 686.216 228.257 686.146 228.396C686.626 229.23 687.186 230.064 687.747 230.898C693.93 233.817 702.833 240.003 693.309 245.146C691.078 245.702 685.306 241.88 682.945 240.907C679.883 240.281 676.962 238.544 674.321 237.223C672.86 236.945 671.89 236.528 671.049 235.625C672.03 233.47 673 233.887 674.601 234.652C679.333 235.138 681.904 235.903 686.216 237.293C686.976 237.154 687.807 237.154 688.577 237.084C688.017 233.817 681.834 229.856 679.463 229.161C675.431 226.52 675.431 226.52 672.72 225.13C668.548 224.157 663.126 223.114 659.794 220.682C657.213 219.431 654.712 218.249 652.141 217.068C651.38 216.234 649.429 213.176 648.179 211.925V211.855ZM678.142 223.601C678.212 223.462 678.282 223.323 678.352 223.323C681.834 223.67 683.295 224.574 685.096 227.979C684.965 228.118 684.825 228.327 684.685 228.466C683.845 227.145 682.805 227.284 681.764 226.798C679.263 224.643 678.843 224.574 678.072 223.67L678.142 223.601ZM700.953 227.354C700.953 227.006 700.953 226.659 701.023 226.311C701.583 226.103 702.133 225.964 702.693 225.894C702.903 226.103 703.044 226.311 703.174 226.589C702.763 226.937 701.713 227.701 700.953 227.354ZM707.696 232.288C708.466 231.315 709.156 230.342 709.857 229.369C709.857 226.103 709.997 220.682 713.888 220.751C714.859 222.072 716.81 223.114 718.47 224.365C719.801 226.242 723.693 228.257 723.483 231.037C720.772 234.026 712.568 233.122 708.606 233.331C708.396 232.914 708.046 232.566 707.766 232.219L707.696 232.288Z" fill="#DCDDDD"/>
    </svg>
    